<?xml version="1.0" encoding="UTF-8" standalone="no"?>
<!DOCTYPE svg PUBLIC "-//W3C//DTD SVG 1.1//EN"
 "http://www.w3.org/Graphics/SVG/1.1/DTD/svg11.dtd">
<!-- Generated by graphviz version 2.43.0 (0)
 -->
<!-- Title: G Pages: 1 -->
<svg width="1728pt" height="332pt"
 viewBox="0.00 0.00 1728.00 331.56" xmlns="http://www.w3.org/2000/svg" xmlns:xlink="http://www.w3.org/1999/xlink">
<g id="graph0" class="graph" transform="scale(1.95 1.95) rotate(0) translate(4 166)">
<title>G</title>
<polygon fill="white" stroke="transparent" points="-4,4 -4,-166 882,-166 882,4 -4,4"/>
<!-- A -->
<g id="node1" class="node">
<title>A</title>
<polygon fill="none" stroke="black" points="14,-18 0,-18 0,0 14,0 14,-18"/>
</g>
<!-- B -->
<g id="node2" class="node">
<title>B</title>
<polygon fill="none" stroke="black" points="878,-54 864,-54 864,-36 878,-36 878,-54"/>
</g>
<!-- A&#45;&#45;B -->
<g id="edge1" class="edge">
<title>A&#45;&#45;B</title>
<path fill="none" stroke="black" d="M14.47,-9.31C94.13,-12.63 785.74,-41.45 863.83,-44.7"/>
</g>
<!-- C -->
<g id="node3" class="node">
<title>C</title>
<polygon fill="none" stroke="black" points="806,-162 792,-162 792,-144 806,-144 806,-162"/>
</g>
<!-- B&#45;&#45;C -->
<g id="edge2" class="edge">
<title>B&#45;&#45;C</title>
<path fill="none" stroke="black" d="M864.86,-54.21C851.26,-74.61 818.71,-123.43 805.12,-143.82"/>
</g>
<!-- C&#45;&#45;A -->
<g id="edge3" class="edge">
<title>C&#45;&#45;A</title>
<path fill="none" stroke="black" d="M791.91,-151.71C717.89,-138.25 87.61,-23.66 14.01,-10.27"/>
</g>
</g>
</svg>
